<?xml version="1.0" encoding="utf-8" ?><svg xmlns="http://www.w3.org/2000/svg" xmlns:xlink="http://www.w3.org/1999/xlink" width="1024" height="1024" viewBox="0 0 1024 1024"><defs><linearGradient id="gradient_0" gradientUnits="userSpaceOnUse" x1="348.67676" y1="728.66473" x2="535.19336" y2="439.52344"><stop offset="0" stop-color="#1E2A4D"/><stop offset="1" stop-color="#D4982D"/></linearGradient></defs><path fill="url(#gradient_0)" d="M295.652 287.237C331.292 247.715 384.35 237.092 434.518 252.806C437.47 253.731 442.256 254.834 444.002 257.448C443.811 260.042 438.481 262.892 436.224 264.809C408.765 288.135 387.219 321.651 385.554 358.394C385.24 365.329 386.078 372.488 385.941 379.443C385.86 391.365 385.556 395.607 387.78 407.132C395.972 445.698 417.184 466.374 444.172 492.41C436.458 500.61 426.544 508.185 418.431 516.332C362.672 572.326 343.028 670.421 405.416 729.839C408.321 732.606 422.114 746.897 425.235 743.392C423.898 739.956 415.088 730.707 412.078 726.755C407.194 720.297 402.983 713.356 399.509 706.041C381.759 668.677 381.066 625.939 394.905 587.25C398.043 578.223 402.062 569.527 406.905 561.289C417.314 543.744 442.401 513.621 460.497 505.222L461.179 504.909C468.221 507.246 477.119 515.149 484.21 519.059C521.572 539.66 562.007 557.164 597.042 581.476C609.262 589.956 612.233 604.085 603.782 616.194C600.532 620.85 597.134 624.964 593.322 629.477C603.581 640.809 611.133 653.602 613.853 668.865C617.382 688.673 615.816 709.114 605.933 726.951C602.017 734.018 594.91 743.506 590.061 750.358C616.145 750.928 654.494 742.341 657.381 779.456C652.213 780.114 637.839 779.778 632.007 779.778C614.728 779.802 597.449 779.733 580.171 779.57C551.008 779.361 522.506 779.858 493.374 778.901C449.916 778.183 413.255 770.277 375.995 747.471C302.789 702.664 275.76 614.708 304.205 534.033C309.561 519.221 316.222 504.914 324.111 491.28C338.837 465.237 366.52 429.112 359.212 397.707C356.567 386.657 349.57 377.146 339.81 371.331C325.859 362.885 305.978 364.291 292.37 372.876C280.882 380.124 271.938 394.369 265.103 405.883C264.745 403.71 264.505 402.007 264.314 399.808C261.694 369.628 261.776 344.783 275.687 316.981C281.115 306.295 287.818 296.308 295.652 287.237Z"/><path fill="#D4982D" d="M295.652 287.237C331.292 247.715 384.35 237.092 434.518 252.806C437.47 253.731 442.256 254.834 444.002 257.448C443.811 260.042 438.481 262.892 436.224 264.809C408.765 288.135 387.219 321.651 385.554 358.394C385.24 365.329 386.078 372.488 385.941 379.443C383.209 380.535 381.449 381.065 378.455 381.174C372.372 352.469 334.8 335.133 308.42 345.394C298.576 349.223 288.805 355.109 280.816 361.962C280.856 355.924 282.203 351.856 283.628 346.161C288.356 327.264 296.102 316.307 308.39 301.684C307.787 295.714 305.647 298.155 307.158 291.461C302.43 292.001 304.303 288.534 299.498 293.119C298.438 291.243 296.877 289.058 295.652 287.237Z"/><path fill="#8B6B1A" d="M307.158 291.461C309.305 290.833 310.258 290.33 312.378 290.715C315.223 292.791 313.029 296.065 311.244 298.297C310.313 299.443 309.361 300.573 308.39 301.684C307.787 295.714 305.647 298.155 307.158 291.461Z"/><path fill="#8B6B1A" d="M378.455 381.174C381.449 381.065 383.209 380.535 385.941 379.443C385.86 391.365 385.556 395.607 387.78 407.132L387.333 408.096L386.794 407.144C385.103 406.317 384.956 406.212 383.853 404.69C382.794 405.24 382.556 405.369 381.922 406.383C381.175 396.831 380.159 390.602 378.455 381.174Z"/><path fill="#8B6B1A" d="M518.081 599.123C544.954 598.603 582.087 623.938 591.618 649.396C608.917 695.601 591.086 738.937 544.572 757.203C534.279 760.447 530.8 761.303 520.14 761.015C520.907 760.785 521.674 760.55 522.438 760.309C537.323 755.612 552.98 744.699 560.016 730.539C571.715 706.995 569.671 671.722 559.583 648.026C555.414 638.386 549.636 629.526 542.495 621.825C534.604 613.322 525.943 607.911 516.038 602.354C515.24 601.906 514.798 601.235 514.524 600.361C515.835 599.144 515.942 599.492 518.081 599.123Z"/><defs><linearGradient id="gradient_1" gradientUnits="userSpaceOnUse" x1="500.6817" y1="507.88983" x2="717.79944" y2="372.34341"><stop offset="0" stop-color="#9B7520"/><stop offset="1" stop-color="#E0A535"/></linearGradient></defs><path fill="url(#gradient_1)" d="M425.814 302.155C428.598 297.98 433.759 292.435 437.357 288.805C457.481 268.656 483.173 254.989 511.128 249.562C588.371 234.27 681.854 270.826 698.186 355.013C699.155 360.009 700.077 365.029 700.046 370.13C683.831 361.27 670.794 355.834 652.192 352.629C646.882 351.714 640.916 351.674 636.006 350.731C632.811 343.428 630.528 335.409 627.21 328.477C616.148 305.414 596.793 287.373 573.01 277.958C549.254 268.738 524.827 268.968 501.608 279.581C491.577 284.166 477.068 292.333 471.35 302.163C489.675 326.966 494.646 356.414 491.267 386.943C490.137 397.151 484.356 406.753 483.101 415.569C488.529 422.91 496.941 427.598 504.61 432.285C568.166 471.125 653.716 484.392 693.628 554.015C709.099 581.004 712.957 611.7 708.345 642.385L708.124 643.82C702.954 682.673 678.66 713.911 647.601 736.226C640.799 733.539 632.267 732.001 624.955 731.866C626.427 724.704 629.216 715.875 632.689 709.464C635.045 705.114 638.044 701.119 640.437 696.781C651.597 676.548 655.25 654.151 650.692 631.469C648.309 619.608 643.886 608.548 636.687 598.77C604.882 555.566 520.866 523.538 474.64 492.838C452.029 477.822 427.728 454.256 415.382 429.921C410.707 420.706 407.147 409.354 405.156 399.195C403.678 391.65 403.916 383.988 403.928 376.338C403.978 346.1 408.737 327.552 425.814 302.155Z"/><defs><linearGradient id="gradient_2" gradientUnits="userSpaceOnUse" x1="532.60364" y1="722.61627" x2="574.90729" y2="318.948"><stop offset="0" stop-color="#1A2240"/><stop offset="1" stop-color="#A87B1C"/></linearGradient></defs><path fill="url(#gradient_2)" d="M425.814 302.155C429.136 303.267 438.531 309.127 440.331 312.154C441.813 314.647 440.202 322.164 438.785 325.058C426.656 349.82 427.593 383.433 439.301 409.178C458.891 452.255 509.771 478.075 550.135 498.864C559.149 503.566 568.127 508.338 577.068 513.178C585.005 517.391 594.357 521.868 601.933 526.419C633.295 545.256 664.287 570.246 675.977 606.301C678.061 612.727 680.825 622.624 681.544 629.456L682.982 630.624C689.191 632.913 688.329 634.561 693.565 637.151C698.566 639.624 703.391 639.842 708.124 643.82C702.954 682.673 678.66 713.911 647.601 736.226C640.799 733.539 632.267 732.001 624.955 731.866C626.427 724.704 629.216 715.875 632.689 709.464C635.045 705.114 638.044 701.119 640.437 696.781C651.597 676.548 655.25 654.151 650.692 631.469C648.309 619.608 643.886 608.548 636.687 598.77C604.882 555.566 520.866 523.538 474.64 492.838C452.029 477.822 427.728 454.256 415.382 429.921C410.707 420.706 407.147 409.354 405.156 399.195C403.678 391.65 403.916 383.988 403.928 376.338C403.978 346.1 408.737 327.552 425.814 302.155Z"/><path fill="#8B6B1A" d="M681.544 629.456L682.982 630.624C682.187 632.465 683.441 647.975 682.094 651.483C681.275 653.618 681.565 658.905 680.308 661.443C679.741 659.948 680.804 653.184 681.121 651.309C682.404 643.712 681.263 636.651 681.544 629.456Z"/><path fill="#D4982D" d="M471.35 302.163C489.675 326.966 494.646 356.414 491.267 386.943C490.137 397.151 484.356 406.753 483.101 415.569C471.072 405.609 460.301 386.454 457.504 371.295C452.434 343.821 456.569 324.91 471.35 302.163Z"/><path fill="#8B6B1A" d="M582.743 328.555C595.883 332.529 606.596 347.728 615.824 357.709C618.098 360.169 623.163 367.158 626.026 368.411C635.149 372.183 646.505 371.313 656.118 373.339C680.315 378.439 700.461 393.699 714.24 413.955C716.981 417.983 720.042 423.263 723.134 427.089C730.845 436.63 743.565 445.923 735.978 459.835C723.329 480.561 700.094 482.316 679.128 488.214C673.917 490.076 668.667 491.824 663.381 493.459C659.141 491.541 654.197 487.979 650.289 485.328C627.155 469.63 601.201 458.786 575.806 447.36C561.355 440.859 547.527 434.598 532.716 428.847C549.62 423.508 551.64 413.907 560.852 400.211C566.084 392.432 574.766 383.941 582.997 379.452C582.42 377.986 581.91 376.495 581.469 374.982C578.242 363.867 577.131 338.676 582.743 328.555ZM684.876 430.268C688.107 430.154 691.243 430.403 694.468 430.596C687.075 414.843 682.692 401.057 662.427 401.593C654.065 405.676 648.479 412.878 653.371 422.203C655.559 426.321 659.393 429.316 663.917 430.443C668.668 431.667 679.622 430.569 684.876 430.268Z"/><path fill="#1A1A2E" d="M669.562 409.13C681.734 408.19 690.782 423.174 675.561 427.627C675.203 427.653 674.844 427.674 674.485 427.691C670.277 427.861 662.757 425.607 662.677 420.629C663.85 418.513 665.547 418.248 667.818 417.569L668.492 417.372C669.352 414.02 667.485 411.111 669.562 409.13Z"/><path fill="#1A1A2E" d="M591.122 347.313C593.387 348.846 596.208 352.535 597.602 354.942C608.866 374.392 607.932 387.263 603.099 407.786L602.212 410.107L601.657 410.256C600.4 407.447 599.998 399.7 599.105 396.125C594.119 376.173 590.156 368.294 591.122 347.313Z"/><path fill="#8B6B1A" d="M694.323 514.192C718.172 513.434 735.056 521.042 712.466 542.93C711.176 544.034 709.519 545.173 708.131 546.19C704.144 538.677 700.143 531.805 694.475 525.364C691.261 521.711 688.11 518.738 684.949 514.948C687.739 514.573 691.437 514.399 694.323 514.192Z"/></svg>