<svg xmlns="http://www.w3.org/2000/svg" viewBox="0 0 400 400" fill="none" stroke="currentColor" stroke-width="2.5" stroke-linecap="round" stroke-linejoin="round">
  <!-- One-line squirrel: sitting pose with big fluffy tail curling into an S shape -->
  <path d="
    M 200 60
    C 180 55, 160 65, 155 85
    C 150 105, 165 120, 175 115
    C 180 112, 178 105, 175 100
    C 172 95, 168 98, 170 105
    M 185 115
    C 190 125, 185 140, 180 155
    C 175 170, 170 185, 172 200
    C 174 215, 180 225, 190 230
    C 200 235, 210 230, 215 225
    C 225 215, 225 200, 220 190
    C 215 180, 205 178, 200 182
    C 195 186, 195 195, 200 200
    M 190 230
    C 185 240, 178 248, 175 260
    C 172 275, 178 285, 188 285
    C 195 285, 200 280, 200 275
    M 210 225
    C 215 240, 218 250, 222 260
    C 226 275, 230 285, 225 290
    C 220 295, 212 290, 215 282
    M 220 190
    C 235 185, 250 190, 260 205
    C 275 225, 280 255, 270 280
    C 260 305, 240 320, 225 330
    C 210 340, 205 345, 210 350
    C 220 360, 240 355, 255 340
    C 275 320, 290 290, 295 260
    C 300 230, 295 200, 280 180
    C 265 160, 245 150, 230 148
    C 220 146, 215 150, 218 158
    M 165 88
    C 160 82, 162 75, 168 73
    C 174 71, 178 76, 176 82
    M 170 95
    C 166 92, 167 88, 171 88
    C 174 88, 174 92, 171 93
  " class="squirrel-line"/>
</svg>
