<svg xmlns="http://www.w3.org/2000/svg" viewBox="0 0 400 400" fill="none" stroke="currentColor" stroke-width="2.5" stroke-linecap="round" stroke-linejoin="round">
  <!-- One-line squirrel with arms up celebrating, tail high -->
  <path d="
    M 195 95
    C 185 90, 175 95, 173 108
    C 171 120, 180 128, 188 124
    C 193 121, 191 115, 187 112
    M 178 103
    C 175 99, 177 95, 181 94
    C 185 93, 188 96, 186 100
    M 183 113
    C 180 111, 181 108, 184 108
    C 187 108, 187 111, 184 112
    M 188 124
    C 195 132, 200 145, 200 160
    C 200 175, 198 188, 195 198
    C 192 208, 195 215, 200 220
    C 205 225, 212 220, 215 212
    C 218 204, 218 195, 215 185
    M 195 198
    C 190 210, 188 225, 192 235
    C 196 245, 202 248, 208 245
    M 215 212
    C 220 225, 225 235, 228 242
    C 230 248, 226 252, 220 250
    M 172 145
    C 165 135, 155 120, 148 108
    C 142 98, 138 95, 140 90
    M 220 145
    C 228 132, 238 118, 248 108
    C 255 100, 258 95, 256 90
    M 215 185
    C 230 182, 248 188, 258 202
    C 272 222, 278 248, 272 272
    C 266 296, 250 315, 238 325
    C 226 335, 222 342, 228 348
    C 238 358, 258 348, 272 330
    C 290 308, 298 275, 296 245
    C 294 215, 282 192, 265 178
    C 252 166, 238 162, 228 166
    M 145 85
    L 140 75
    M 148 88
    L 155 78
    M 252 85
    L 258 75
    M 250 88
    L 242 78
  " class="squirrel-line"/>
</svg>
