<svg xmlns="http://www.w3.org/2000/svg" viewBox="0 0 400 400" fill="none" stroke="currentColor" stroke-width="2.5" stroke-linecap="round" stroke-linejoin="round">
  <!-- One-line squirrel hunched over a book, tail up -->
  <path d="
    M 175 100
    C 165 95, 155 100, 153 112
    C 151 124, 160 132, 170 128
    C 175 125, 173 118, 169 115
    M 160 108
    C 157 104, 159 99, 163 98
    C 167 97, 170 100, 168 104
    M 166 116
    C 163 114, 164 111, 167 111
    C 170 111, 170 114, 167 115
    M 170 128
    C 178 138, 185 150, 188 165
    C 190 175, 190 185, 185 195
    C 180 205, 175 210, 168 215
    C 160 220, 155 225, 158 232
    M 185 195
    C 195 200, 205 198, 210 192
    C 215 186, 215 178, 210 172
    M 168 215
    C 172 225, 178 232, 185 235
    C 192 238, 200 235, 205 230
    M 185 235
    C 183 245, 180 255, 182 265
    C 184 275, 190 278, 195 275
    M 205 230
    C 210 242, 215 252, 218 260
    C 220 268, 218 275, 212 275
    M 210 172
    C 225 168, 240 175, 250 190
    C 262 210, 268 235, 265 258
    C 260 280, 248 300, 235 310
    C 222 320, 215 328, 222 335
    C 232 345, 250 338, 262 322
    C 278 300, 285 268, 282 240
    C 279 212, 268 188, 250 172
    C 238 160, 225 155, 215 158
    M 120 240
    L 240 240
    M 120 240
    L 120 280
    L 240 280
    L 240 240
    M 155 240
    L 155 260
    M 180 240
    L 180 280
    M 205 240
    L 205 260
  " class="squirrel-line"/>
</svg>
